<svg version="1.1" id="Layer_1" xmlns="http://www.w3.org/2000/svg" xmlns:xlink="http://www.w3.org/1999/xlink" x="0px" y="0px"
	 width="100%" viewBox="0 0 356 400" enable-background="new 0 0 356 400" xml:space="preserve">
<path fill="#F8F2DA" opacity="1.000000" stroke="none" 
	d="
M117.000000,1.000000 
	C152.354233,1.000000 187.708450,1.000000 223.223389,1.334535 
	C224.203323,2.111566 224.978378,2.687554 225.848724,2.975682 
	C233.597427,5.540881 241.640396,7.428393 249.065735,10.715075 
	C264.498840,17.546236 277.725220,27.512897 288.938812,40.296230 
	C298.640106,51.355553 306.448944,63.466484 312.130432,77.349915 
	C312.516388,78.802338 312.926178,79.886955 313.336487,80.971367 
	C321.523651,102.608055 325.311401,124.837776 322.001251,147.937073 
	C320.062103,161.469421 313.517639,172.974335 305.310822,184.014252 
	C303.841705,185.571350 302.631195,186.938278 301.297058,188.171448 
	C289.818878,198.780945 276.733246,205.122925 260.637878,205.073761 
	C200.853271,204.891174 141.067429,204.889053 81.282806,205.067429 
	C62.747364,205.122726 48.253601,197.200684 36.352837,184.029572 
	C46.864910,182.575439 54.307106,177.034286 59.375900,168.491730 
	C72.421196,146.506226 73.235603,123.458366 63.641293,100.171738 
	C57.410240,85.048172 46.961357,75.023933 29.070852,76.583595 
	C29.806095,75.127754 30.471165,74.031570 31.001247,72.873581 
	C38.836716,55.756760 49.872932,40.901993 64.024559,28.634449 
	C78.649529,15.956579 95.514862,7.193407 114.565002,2.942542 
	C115.475807,2.739305 116.192764,1.667384 117.000000,1.000000 
M276.738739,92.363701 
	C276.412689,92.296021 276.088318,92.178741 275.760345,92.167664 
	C228.322983,90.566422 180.892883,88.649223 133.443878,87.542976 
	C115.212639,87.117920 100.648117,101.818954 101.671005,120.003166 
	C101.960625,125.151855 101.616074,130.333054 101.742310,135.494949 
	C101.876328,140.974777 101.449997,146.622177 102.626488,151.893280 
	C105.925835,166.675583 119.354836,176.225082 136.189789,176.261459 
	C170.844955,176.336349 205.500366,176.295334 240.155685,176.278564 
	C251.483810,176.273087 262.829193,176.573135 274.135742,176.056503 
	C289.009857,175.376846 300.848328,162.658981 301.048340,147.782684 
	C301.160339,139.453583 301.090454,131.121689 301.066528,122.791161 
	C301.023621,107.857063 292.061127,96.398972 276.738739,92.363701 
z"/>
<path fill="#000000" opacity="1.000000" stroke="none" 
	d="
M312.154572,76.982010 
	C306.448944,63.466484 298.640106,51.355553 288.938812,40.296230 
	C277.725220,27.512897 264.498840,17.546236 249.065735,10.715075 
	C241.640396,7.428393 233.597427,5.540881 225.848724,2.975682 
	C224.978378,2.687554 224.203323,2.111566 223.692047,1.334535 
	C268.283295,1.000000 312.566620,1.000000 357.000000,1.000000 
	C357.000000,85.687500 357.000000,170.375092 356.593994,255.517242 
	C352.845947,255.988174 349.503845,256.004547 346.094666,255.554749 
	C346.027527,238.100510 346.027527,221.112442 346.027527,204.124390 
	C345.616791,204.024536 345.206055,203.924698 344.795319,203.824844 
	C343.835968,204.875916 342.876587,205.926971 341.508881,206.986008 
	C336.362427,207.797028 331.666534,208.333450 328.064117,212.323441 
	C319.262634,222.071823 310.179779,231.565582 301.288269,241.233688 
	C299.088287,243.625839 297.071167,244.316727 293.601654,243.439987 
	C286.908661,241.748627 279.962769,241.058121 273.067871,239.558487 
	C271.356018,235.067474 269.697998,230.970657 267.895996,226.559265 
	C264.156525,224.495850 260.711182,221.731094 256.939728,221.174011 
	C240.625717,218.764175 224.263763,216.226990 207.828308,215.219177 
	C191.540421,214.220428 175.138199,214.740677 158.795975,215.075912 
	C143.939621,215.380661 129.059097,215.890411 114.259941,217.144302 
	C103.257622,218.076538 92.325027,220.116074 81.462227,222.190506 
	C79.046204,222.651886 77.053307,225.328918 74.537415,227.134949 
	C64.584984,246.188980 64.173157,266.248566 68.313866,286.307129 
	C72.519363,306.679596 80.110138,326.014282 91.047043,343.838348 
	C94.310349,349.156616 98.297516,354.030731 101.976662,359.459167 
	C107.381699,365.755585 112.286423,372.237671 118.245872,377.532654 
	C129.886185,387.875092 142.884323,396.088531 158.575180,399.085724 
	C159.150986,399.195709 159.529526,400.338501 160.000000,401.000000 
	C107.056313,401.000000 54.112633,401.000000 1.000000,401.000000 
	C1.000000,316.979187 1.000000,232.958252 1.330716,148.168198 
	C3.109558,151.445663 4.494418,155.516251 6.017588,159.534378 
	C10.714503,171.924911 22.404596,185.226212 35.969547,184.120132 
	C48.253601,197.200684 62.747364,205.122726 81.282806,205.067429 
	C141.067429,204.889053 200.853271,204.891174 260.637878,205.073761 
	C276.733246,205.122925 289.818878,198.780945 301.297058,188.171448 
	C302.631195,186.938278 303.841705,185.571350 305.572754,184.373901 
	C315.667542,185.460617 323.334778,181.271683 329.055786,174.220535 
	C337.769745,163.480560 341.984619,150.668243 342.918396,136.962555 
	C343.713531,125.291763 342.467590,113.798347 338.051666,102.765839 
	C333.103149,90.402893 325.789734,80.554016 312.154572,76.982010 
z"/>
<path fill="#F6F0D2" opacity="1.000000" stroke="none" 
	d="
M160.468567,401.000000 
	C159.529526,400.338501 159.150986,399.195709 158.575180,399.085724 
	C142.884323,396.088531 129.886185,387.875092 118.245872,377.532654 
	C112.286423,372.237671 107.381699,365.755585 102.131584,359.103210 
	C104.330444,353.610260 105.771835,348.412933 108.590462,344.119904 
	C115.329369,333.855835 126.083344,328.244659 136.145645,321.896362 
	C139.536545,319.757019 142.722321,317.292572 146.395584,314.860382 
	C159.901031,313.044220 173.012741,311.344391 186.373840,309.833374 
	C187.690094,310.933472 188.756943,311.844727 189.800186,313.239502 
	C189.775909,324.683899 189.871857,335.646179 189.712418,346.604767 
	C189.667847,349.669342 190.486725,350.952698 193.721848,351.366180 
	C201.279419,352.332184 208.792862,353.681732 216.293472,355.044891 
	C224.531342,356.542023 232.734772,358.228638 240.641998,359.983063 
	C239.630249,360.841309 238.865860,361.496979 238.238541,362.264648 
	C223.578705,380.204590 206.334381,394.243561 182.949371,399.115295 
	C182.520645,399.204620 182.311569,400.348267 182.000000,401.000000 
	C174.979050,401.000000 167.958099,401.000000 160.468567,401.000000 
z"/>
<path fill="#000000" opacity="1.000000" stroke="none" 
	d="
M182.468658,401.000000 
	C182.311569,400.348267 182.520645,399.204620 182.949371,399.115295 
	C206.334381,394.243561 223.578705,380.204590 238.238541,362.264648 
	C238.865860,361.496979 239.630249,360.841309 241.077637,360.045441 
	C242.822311,359.974060 243.841217,359.864044 244.814835,360.026093 
	C262.504578,362.969940 280.170227,366.068665 297.896301,368.772003 
	C300.290802,369.137177 303.888550,368.380676 305.394867,366.737274 
	C318.186646,352.781525 330.686859,338.555328 343.083954,324.245148 
	C344.625916,322.465149 345.767334,319.752808 345.871735,317.417847 
	C346.250183,308.952057 346.107819,300.463013 346.578796,291.987305 
	C350.330414,290.994598 353.665192,289.997314 357.000000,289.000000 
	C357.000000,326.276367 357.000000,363.552704 357.000000,401.000000 
	C298.979218,401.000000 240.958267,401.000000 182.468658,401.000000 
z"/>
<path fill="#F49A41" opacity="1.000000" stroke="none" 
	d="
M36.352837,184.029572 
	C22.404596,185.226212 10.714503,171.924911 6.017588,159.534378 
	C4.494418,155.516251 3.109558,151.445663 1.330716,147.699539 
	C1.000000,136.312439 1.000000,124.624878 1.330374,112.769066 
	C2.105488,111.778297 2.716873,111.003860 2.970120,110.126091 
	C7.171603,95.563667 13.710770,82.849030 28.937899,76.914505 
	C46.961357,75.023933 57.410240,85.048172 63.641293,100.171738 
	C73.235603,123.458366 72.421196,146.506226 59.375900,168.491730 
	C54.307106,177.034286 46.864910,182.575439 36.352837,184.029572 
z"/>
<path fill="#000000" opacity="1.000000" stroke="none" 
	d="
M29.070852,76.583595 
	C13.710770,82.849030 7.171603,95.563667 2.970120,110.126091 
	C2.716873,111.003860 2.105488,111.778297 1.330374,112.300407 
	C1.000000,75.071442 1.000000,38.142876 1.000000,1.000000 
	C39.353962,1.000000 77.708321,1.000000 116.531342,1.000000 
	C116.192764,1.667384 115.475807,2.739305 114.565002,2.942542 
	C95.514862,7.193407 78.649529,15.956579 64.024559,28.634449 
	C49.872932,40.901993 38.836716,55.756760 31.001247,72.873581 
	C30.471165,74.031570 29.806095,75.127754 29.070852,76.583595 
z"/>
<path fill="#D94315" opacity="1.000000" stroke="none" 
	d="
M357.000000,288.531342 
	C353.665192,289.997314 350.330414,290.994598 346.430664,291.672974 
	C332.758148,281.739716 332.227905,269.738892 344.378204,258.358551 
	C345.083679,257.697815 345.572266,256.805481 346.161774,256.020935 
	C349.503845,256.004547 352.845947,255.988174 356.593994,255.985901 
	C357.000000,266.687561 357.000000,277.375122 357.000000,288.531342 
z"/>
<path fill="#DA4315" opacity="1.000000" stroke="none" 
	d="
M277.137939,92.514923 
	C292.061127,96.398972 301.023621,107.857063 301.066528,122.791161 
	C301.090454,131.121689 301.160339,139.453583 301.048340,147.782684 
	C300.848328,162.658981 289.009857,175.376846 274.135742,176.056503 
	C262.829193,176.573135 251.483810,176.273087 240.155685,176.278564 
	C205.500366,176.295334 170.844955,176.336349 136.189789,176.261459 
	C119.354836,176.225082 105.925835,166.675583 102.626488,151.893280 
	C101.449997,146.622177 101.876328,140.974777 101.742310,135.494949 
	C101.616074,130.333054 101.960625,125.151855 101.671005,120.003166 
	C100.648117,101.818954 115.212639,87.117920 133.443878,87.542976 
	C180.892883,88.649223 228.322983,90.566422 275.760345,92.167664 
	C276.088318,92.178741 276.412689,92.296021 277.137939,92.514923 
M139.075775,115.612274 
	C131.296265,126.076233 132.521332,137.679565 142.253769,145.712738 
	C151.574966,153.406479 165.885132,152.287399 173.832336,143.243240 
	C181.212723,134.844147 180.420181,122.423363 171.997864,114.493233 
	C162.809219,105.841560 149.814148,106.069580 139.075775,115.612274 
M270.923737,133.230103 
	C270.907928,132.066574 271.021088,130.884384 270.855743,129.742508 
	C269.599579,121.067505 264.853302,114.992416 256.632568,112.102295 
	C248.602493,109.279213 241.051392,110.805405 234.956467,116.805595 
	C229.133606,122.537964 227.590210,129.681320 230.105392,137.492249 
	C232.953949,146.338486 241.794540,152.314682 251.210464,151.974808 
	C261.270630,151.611679 268.282990,145.224274 270.923737,133.230103 
z"/>
<path fill="#F49B42" opacity="1.000000" stroke="none" 
	d="
M312.130432,77.349915 
	C325.789734,80.554016 333.103149,90.402893 338.051666,102.765839 
	C342.467590,113.798347 343.713531,125.291763 342.918396,136.962555 
	C341.984619,150.668243 337.769745,163.480560 329.055786,174.220535 
	C323.334778,181.271683 315.667542,185.460617 305.774048,184.121704 
	C313.517639,172.974335 320.062103,161.469421 322.001251,147.937073 
	C325.311401,124.837776 321.523651,102.608055 313.336487,80.971367 
	C312.926178,79.886955 312.516388,78.802338 312.130432,77.349915 
z"/>
<path fill="#48A9A6" opacity="1.000000" stroke="none" 
	d="
M346.094666,255.554749 
	C345.572266,256.805481 345.083679,257.697815 344.378204,258.358551 
	C332.227905,269.738892 332.758148,281.739716 346.013855,291.668365 
	C346.107819,300.463013 346.250183,308.952057 345.871735,317.417847 
	C345.767334,319.752808 344.625916,322.465149 343.083954,324.245148 
	C330.686859,338.555328 318.186646,352.781525 305.394867,366.737274 
	C303.888550,368.380676 300.290802,369.137177 297.896301,368.772003 
	C280.170227,366.068665 262.504578,362.969940 244.814835,360.026093 
	C243.841217,359.864044 242.822311,359.974060 241.388855,359.895081 
	C232.734772,358.228638 224.531342,356.542023 216.293472,355.044891 
	C208.792862,353.681732 201.279419,352.332184 193.721848,351.366180 
	C190.486725,350.952698 189.667847,349.669342 189.712418,346.604767 
	C189.871857,335.646179 189.775909,324.683899 190.229446,313.273193 
	C198.151077,313.287933 202.675018,308.818756 206.258362,303.172852 
	C209.611008,297.890472 208.114319,292.651276 205.195831,287.703644 
	C201.718979,281.809448 195.874390,279.532745 189.708710,277.402588 
	C189.638260,264.298706 189.539551,251.653214 189.559998,238.563339 
	C189.806000,235.710510 189.932846,233.302048 190.077225,230.560699 
	C193.719925,231.050293 196.802322,231.464569 200.270142,232.009338 
	C233.448608,238.415543 266.230499,244.751511 299.062744,250.815186 
	C301.005249,251.173950 303.948303,249.924210 305.406036,248.428879 
	C311.206390,242.478867 316.657532,236.182907 322.133636,229.923752 
	C328.783203,222.323303 335.327423,214.630737 341.917236,206.978027 
	C342.876587,205.926971 343.835968,204.875916 344.795319,203.824844 
	C345.206055,203.924698 345.616791,204.024536 346.027527,204.124390 
	C346.027527,221.112442 346.027527,238.100510 346.094666,255.554749 
M324.804688,257.553345 
	C324.169495,259.338745 322.895050,261.170715 323.021118,262.900665 
	C323.374451,267.750488 322.267853,271.599609 318.131683,274.574432 
	C316.914368,275.449951 316.511993,277.458588 315.736115,278.947906 
	C316.096527,279.160065 316.456940,279.372223 316.817352,279.584381 
	C318.673828,278.179382 320.530273,276.774414 323.157440,274.786102 
	C323.157440,284.464478 323.157440,293.014465 323.157440,301.564484 
	C323.637054,301.656769 324.116669,301.749054 324.596283,301.841339 
	C325.033813,300.162964 325.801178,298.493866 325.848602,296.804535 
	C326.007507,291.146210 326.229736,285.457336 325.819885,279.824371 
	C325.404297,274.112732 326.553497,269.485321 331.443054,265.959656 
	C332.794464,264.985199 333.330139,262.879486 334.240112,261.292816 
	C333.865662,261.064026 333.491241,260.835236 333.116821,260.606445 
	C331.000397,262.467896 328.883972,264.329346 326.227722,266.665619 
	C325.956848,262.874115 325.768372,260.236115 324.804688,257.553345 
z"/>
<path fill="#F8F2DA" opacity="1.000000" stroke="none" 
	d="
M189.440842,239.007721 
	C189.539551,251.653214 189.638260,264.298706 189.291840,277.436096 
	C180.288605,277.432312 177.665558,279.112823 176.251556,285.728424 
	C161.526276,287.354553 147.237610,288.970032 132.608231,290.409058 
	C129.890778,289.417542 127.514061,288.602448 124.979980,287.484375 
	C124.309776,286.328491 123.771935,285.489441 123.287888,284.620483 
	C116.806961,272.985748 110.453964,261.277496 103.811256,249.735962 
	C100.074776,243.243958 92.892624,241.382126 86.548965,244.777893 
	C80.779160,247.866486 77.979774,255.201279 81.147743,261.091522 
	C88.548553,274.851959 96.388107,288.376373 104.062088,302.442780 
	C103.741135,316.283691 110.658501,324.425262 123.124702,324.671295 
	C129.948303,324.805939 134.550568,320.284912 139.232651,315.760620 
	C141.744980,315.596130 143.873398,315.286407 146.001831,314.976685 
	C142.722321,317.292572 139.536545,319.757019 136.145645,321.896362 
	C126.083344,328.244659 115.329369,333.855835 108.590462,344.119904 
	C105.771835,348.412933 104.330444,353.610260 102.107956,358.752380 
	C98.297516,354.030731 94.310349,349.156616 91.047043,343.838348 
	C80.110138,326.014282 72.519363,306.679596 68.313866,286.307129 
	C64.173157,266.248566 64.584984,246.188980 74.685791,227.460327 
	C77.101112,228.825867 78.900963,230.601349 81.003510,231.099640 
	C88.732666,232.931427 96.499123,234.861221 104.365410,235.813080 
	C132.620529,239.232101 161.024063,239.469925 189.440842,239.007721 
z"/>
<path fill="#F49A42" opacity="1.000000" stroke="none" 
	d="
M189.559998,238.563339 
	C161.024063,239.469925 132.620529,239.232101 104.365410,235.813080 
	C96.499123,234.861221 88.732666,232.931427 81.003510,231.099640 
	C78.900963,230.601349 77.101112,228.825867 75.013962,227.311188 
	C77.053307,225.328918 79.046204,222.651886 81.462227,222.190506 
	C92.325027,220.116074 103.257622,218.076538 114.259941,217.144302 
	C129.059097,215.890411 143.939621,215.380661 158.795975,215.075912 
	C175.138199,214.740677 191.540421,214.220428 207.828308,215.219177 
	C224.263763,216.226990 240.625717,218.764175 256.939728,221.174011 
	C260.711182,221.731094 264.156525,224.495850 267.656982,226.816559 
	C265.824158,228.577103 264.237579,230.204407 262.318085,230.866425 
	C257.829071,232.414658 253.180298,233.499695 248.196167,234.745941 
	C246.643539,234.700363 245.460052,234.845917 244.343170,234.636414 
	C233.292099,232.563522 222.233261,230.523773 211.217896,228.272797 
	C206.637711,227.336838 202.397064,226.678253 199.884720,231.878860 
	C196.802322,231.464569 193.719925,231.050293 190.077225,230.560699 
	C189.932846,233.302048 189.806000,235.710510 189.559998,238.563339 
z"/>
<path fill="#F5F1D9" opacity="1.000000" stroke="none" 
	d="
M200.270142,232.009338 
	C202.397064,226.678253 206.637711,227.336838 211.217896,228.272797 
	C222.233261,230.523773 233.292099,232.563522 244.343170,234.636414 
	C245.460052,234.845917 246.643539,234.700363 248.582993,234.926086 
	C257.287140,236.739288 265.204437,238.345978 273.121735,239.952667 
	C279.962769,241.058121 286.908661,241.748627 293.601654,243.439987 
	C297.071167,244.316727 299.088287,243.625839 301.288269,241.233688 
	C310.179779,231.565582 319.262634,222.071823 328.064117,212.323441 
	C331.666534,208.333450 336.362427,207.797028 341.508850,206.985992 
	C335.327423,214.630737 328.783203,222.323303 322.133636,229.923752 
	C316.657532,236.182907 311.206390,242.478867 305.406036,248.428879 
	C303.948303,249.924210 301.005249,251.173950 299.062744,250.815186 
	C266.230499,244.751511 233.448608,238.415543 200.270142,232.009338 
z"/>
<path fill="#F6EFD1" opacity="1.000000" stroke="none" 
	d="
M273.067871,239.558487 
	C265.204437,238.345978 257.287140,236.739288 248.983032,234.952454 
	C253.180298,233.499695 257.829071,232.414658 262.318085,230.866425 
	C264.237579,230.204407 265.824158,228.577103 267.801025,227.131134 
	C269.697998,230.970657 271.356018,235.067474 273.067871,239.558487 
z"/>
<path fill="#F49B42" opacity="1.000000" stroke="none" 
	d="
M132.948959,290.585510 
	C147.237610,288.970032 161.526276,287.354553 176.451477,286.064362 
	C180.100143,294.141296 183.112289,301.892944 186.124451,309.644562 
	C173.012741,311.344391 159.901031,313.044220 146.395569,314.860352 
	C143.873398,315.286407 141.744980,315.596130 139.275635,315.392334 
	C142.867386,304.415009 141.379059,298.374634 132.948959,290.585510 
z"/>
<path fill="#D94416" opacity="1.000000" stroke="none" 
	d="
M186.373840,309.833374 
	C183.112289,301.892944 180.100143,294.141296 176.888092,286.053741 
	C177.665558,279.112823 180.288605,277.432312 189.263611,277.894470 
	C195.874390,279.532745 201.718979,281.809448 205.195831,287.703644 
	C208.114319,292.651276 209.611008,297.890472 206.258362,303.172852 
	C202.675018,308.818756 198.151077,313.287933 190.253052,312.789673 
	C188.756943,311.844727 187.690094,310.933472 186.373840,309.833374 
z"/>
<path fill="#F8F1D9" opacity="1.000000" stroke="none" 
	d="
M139.311676,115.337448 
	C149.814148,106.069580 162.809219,105.841560 171.997864,114.493233 
	C180.420181,122.423363 181.212723,134.844147 173.832336,143.243240 
	C165.885132,152.287399 151.574966,153.406479 142.253769,145.712738 
	C132.521332,137.679565 131.296265,126.076233 139.311676,115.337448 
z"/>
<path fill="#F8F1D9" opacity="1.000000" stroke="none" 
	d="
M270.895020,133.650436 
	C268.282990,145.224274 261.270630,151.611679 251.210464,151.974808 
	C241.794540,152.314682 232.953949,146.338486 230.105392,137.492249 
	C227.590210,129.681320 229.133606,122.537964 234.956467,116.805595 
	C241.051392,110.805405 248.602493,109.279213 256.632568,112.102295 
	C264.853302,114.992416 269.599579,121.067505 270.855743,129.742508 
	C271.021088,130.884384 270.907928,132.066574 270.895020,133.650436 
z"/>
<path fill="#E9EDD6" opacity="1.000000" stroke="none" 
	d="
M325.192291,257.575745 
	C325.768372,260.236115 325.956848,262.874115 326.227722,266.665619 
	C328.883972,264.329346 331.000397,262.467896 333.116821,260.606445 
	C333.491241,260.835236 333.865662,261.064026 334.240112,261.292816 
	C333.330139,262.879486 332.794464,264.985199 331.443054,265.959656 
	C326.553497,269.485321 325.404297,274.112732 325.819885,279.824371 
	C326.229736,285.457336 326.007507,291.146210 325.848602,296.804535 
	C325.801178,298.493866 325.033813,300.162964 324.596283,301.841339 
	C324.116669,301.749054 323.637054,301.656769 323.157440,301.564484 
	C323.157440,293.014465 323.157440,284.464478 323.157440,274.786102 
	C320.530273,276.774414 318.673828,278.179382 316.817352,279.584381 
	C316.456940,279.372223 316.096527,279.160065 315.736115,278.947906 
	C316.511993,277.458588 316.914368,275.449951 318.131683,274.574432 
	C322.267853,271.599609 323.374451,267.750488 323.021118,262.900665 
	C322.895050,261.170715 324.169495,259.338745 325.192291,257.575745 
z"/>
<path fill="#F49B43" opacity="1.000000" stroke="none" 
	d="
M104.049965,301.996399 
	C96.388107,288.376373 88.548553,274.851959 81.147743,261.091522 
	C77.979774,255.201279 80.779160,247.866486 86.548965,244.777893 
	C92.892624,241.382126 100.074776,243.243958 103.811256,249.735962 
	C110.453964,261.277496 116.806961,272.985748 123.287888,284.620483 
	C123.771935,285.489441 124.309776,286.328491 124.533493,287.526337 
	C113.604233,286.991516 107.633560,292.787567 104.049965,301.996399 
z"/>
<path fill="#DA4416" opacity="1.000000" stroke="none" 
	d="
M104.062088,302.442780 
	C107.633560,292.787567 113.604233,286.991516 124.690857,287.829285 
	C127.514061,288.602448 129.890778,289.417542 132.608231,290.409088 
	C141.379059,298.374634 142.867386,304.415009 138.891724,315.247101 
	C134.550568,320.284912 129.948303,324.805939 123.124702,324.671295 
	C110.658501,324.425262 103.741135,316.283691 104.062088,302.442780 
z"/>
</svg>